<?xml version="1.0" standalone="no"?>
<!DOCTYPE svg PUBLIC "-//W3C//DTD SVG 20010904//EN"
 "http://www.w3.org/TR/2001/REC-SVG-20010904/DTD/svg10.dtd">
<svg version="1.0" xmlns="http://www.w3.org/2000/svg"
 width="850.000000pt" height="290.000000pt" viewBox="0 0 850.000000 290.000000"
 preserveAspectRatio="xMidYMid meet">
<metadata>
Created by potrace 1.15, written by Peter Selinger 2001-2017
</metadata>
<g transform="translate(0.000000,290.000000) scale(0.100000,-0.100000)"
fill="#000000" stroke="none">
<path d="M7730 2573 c-146 -51 -259 -182 -291 -339 -17 -86 -11 -98 49 -90
176 23 341 221 342 409 0 34 -2 37 -27 37 -16 -1 -48 -8 -73 -17z"/>
<path d="M553 2476 c-69 -78 -155 -206 -150 -220 3 -8 19 -23 34 -33 15 -10
70 -48 120 -85 51 -38 97 -68 102 -68 6 0 25 20 43 45 107 144 150 206 147
209 -22 19 -251 196 -254 196 -2 0 -21 -20 -42 -44z"/>
<path d="M1463 2255 c-130 -25 -225 -77 -306 -164 -166 -178 -150 -521 29
-670 89 -72 218 -115 449 -146 201 -27 275 -79 275 -192 0 -60 -15 -95 -57
-135 -105 -100 -389 -114 -577 -28 -61 28 -140 92 -183 151 l-38 50 -6 -108
c-4 -59 -7 -151 -8 -204 l-1 -96 50 -27 c81 -44 227 -85 364 -103 120 -16 136
-16 245 0 129 19 197 40 280 89 161 95 241 243 241 444 0 263 -150 409 -475
463 -226 37 -293 57 -344 104 -53 49 -67 145 -31 205 82 134 456 110 623 -39
31 -27 58 -49 61 -49 3 0 6 33 6 73 0 39 5 114 10 165 5 52 6 100 4 107 -5 13
-86 52 -162 79 -118 42 -324 56 -449 31z"/>
<path d="M5560 2065 l0 -175 -90 0 c-49 0 -90 -3 -90 -7 0 -5 -1 -66 -2 -138
l-2 -130 92 -3 92 -3 0 -313 c0 -403 15 -493 101 -590 80 -91 170 -121 343
-113 124 5 195 22 248 59 l27 18 -5 135 c-2 74 -8 134 -12 134 -4 -1 -21 -12
-38 -25 -40 -31 -122 -48 -201 -41 -148 12 -172 75 -172 462 -1 127 2 240 5
252 6 22 10 23 173 25 l166 3 0 135 0 135 -166 3 -167 2 -7 27 c-3 15 -5 92
-4 172 l2 146 -146 3 -147 3 0 -176z"/>
<path d="M7710 2113 c-14 -3 -68 -21 -120 -41 -120 -46 -160 -46 -270 -3 -202
80 -381 43 -522 -108 -107 -115 -151 -242 -151 -436 1 -244 92 -500 253 -713
76 -101 145 -156 211 -172 51 -12 82 -6 229 46 99 35 202 31 300 -10 42 -18
90 -30 135 -33 63 -4 75 -2 125 24 95 50 229 231 302 407 24 57 30 80 20 83
-31 11 -133 96 -166 138 -94 123 -110 297 -43 445 12 25 54 78 94 118 l72 74
-49 52 c-97 103 -272 156 -420 129z"/>
<path d="M3018 1891 c-31 -10 -77 -30 -102 -45 -57 -33 -64 -33 -68 7 l-3 32
-145 0 -145 0 -3 -877 -2 -878 150 0 150 0 0 245 c0 266 -2 257 56 235 14 -6
68 -15 119 -20 137 -14 239 1 341 50 269 130 397 383 364 725 -26 284 -185
478 -434 529 -101 21 -206 20 -278 -3z m223 -273 c69 -32 125 -88 158 -158 23
-48 26 -70 29 -176 3 -89 -1 -135 -12 -175 -38 -128 -120 -217 -222 -240 -29
-6 -90 -10 -137 -7 -70 4 -97 10 -144 34 l-58 30 -3 303 c-2 223 1 307 10 318
17 21 96 65 153 86 67 24 155 18 226 -15z"/>
<path d="M4410 1894 c-86 -18 -212 -82 -278 -139 -149 -132 -224 -321 -218
-545 6 -203 53 -319 180 -446 59 -59 99 -89 146 -111 111 -51 151 -58 325 -57
150 0 164 2 235 28 210 79 354 252 402 483 66 317 -72 623 -335 746 -113 53
-315 71 -457 41z m293 -283 c62 -27 132 -99 165 -169 25 -53 27 -66 27 -197 0
-139 0 -141 -33 -207 -61 -124 -151 -178 -298 -178 -184 0 -327 128 -353 316
-31 219 81 416 259 455 57 13 181 2 233 -20z"/>
<path d="M405 1878 c-3 -7 -4 -296 -3 -643 l3 -630 153 -3 152 -3 0 646 0 645
-150 0 c-111 0 -152 -3 -155 -12z"/>
</g>
</svg>
